<?xml version="1.0" standalone="no"?>
<svg viewBox="0 0 200 200" xmlns="http://www.w3.org/2000/svg">
  <path fill="#6EE984" d="M44.2,-66.2C58.8,-59.4,73.3,-49.7,70.6,-37.5C67.9,-25.3,48.1,-10.6,41.2,2.8C34.4,16.2,40.6,28.3,39.7,40.8C38.9,53.3,31,66.2,21.4,65.6C11.8,65.1,0.5,51.2,-9.8,43.5C-20.1,35.9,-29.2,34.6,-39,30C-48.7,25.5,-59,17.7,-59.7,8.9C-60.5,0.1,-51.6,-9.7,-44,-17.4C-36.3,-25.1,-29.7,-30.6,-22.6,-40.8C-15.5,-51,-7.7,-65.9,3.5,-71.4C14.8,-76.9,29.6,-73,44.2,-66.2Z" transform="translate(100 100)" />
</svg>
