<?xml version="1.0" standalone="no"?>
<svg viewBox="0 0 200 200" xmlns="http://www.w3.org/2000/svg">
  <path fill="#59168B" d="M37.3,-53.4C48.5,-50.9,57.9,-40.8,62.4,-29.1C66.9,-17.3,66.5,-3.9,62.8,7.7C59.1,19.4,52.1,29.2,42.3,31.7C32.4,34.2,19.8,29.3,8.5,35.6C-2.7,41.9,-12.6,59.4,-26.4,66.2C-40.1,72.9,-57.7,69.1,-58.9,57C-60.2,44.9,-45.2,24.6,-39.2,10.8C-33.2,-3.1,-36.1,-10.5,-34,-15.6C-31.8,-20.8,-24.5,-23.8,-18,-28.5C-11.5,-33.2,-5.7,-39.6,3.7,-45.3C13.1,-51,26.1,-56,37.3,-53.4Z" transform="translate(100 100)" />
</svg>
