<?xml version="1.0" standalone="no"?>
<svg viewBox="0 0 200 200" xmlns="http://www.w3.org/2000/svg">
  <path fill="#FF0066" d="M43.2,-72.2C53.3,-60.7,57.1,-44.2,56.8,-30.2C56.5,-16.2,52.2,-4.7,54.5,10.7C56.8,26.1,65.7,45.4,59.3,49.6C52.9,53.8,31.2,43.1,15.2,44.4C-0.8,45.7,-11,59.1,-23.9,63.5C-36.8,68,-52.4,63.4,-55.6,52.3C-58.9,41.2,-49.8,23.5,-50.7,8.2C-51.5,-7.2,-62.3,-20.3,-61.5,-30.6C-60.7,-40.9,-48.4,-48.6,-36.2,-59.1C-24.1,-69.7,-12,-83.2,2.2,-86.7C16.5,-90.2,33.1,-83.7,43.2,-72.2Z" transform="translate(100 100)" />
</svg>
