<?xml version="1.0" standalone="no"?>
<svg viewBox="0 0 200 200" xmlns="http://www.w3.org/2000/svg">
  <path fill="#FF0066" d="M21.9,-40.1C25.9,-31.6,24.8,-21.2,29,-13C33.2,-4.7,42.7,1.4,48.5,11.6C54.2,21.9,56.3,36.2,51.4,47.9C46.5,59.5,34.6,68.4,21.9,70.1C9.2,71.7,-4.3,66.1,-16.8,60.8C-29.3,55.5,-40.8,50.4,-54.2,42.7C-67.6,34.9,-82.8,24.5,-86.4,11.3C-90,-1.9,-82,-17.8,-73.9,-32.9C-65.7,-48,-57.4,-62.2,-45.1,-66.9C-32.8,-71.6,-16.4,-66.7,-3.7,-60.9C9,-55.2,18,-48.6,21.9,-40.1Z" transform="translate(100 100)" />
</svg>
